# xmcd
#
# Track frame offsets: 
#        150
#        14473
#        38015
#        52764
#        67818
#        85351
#        110290
#        122138
#        135432
#        147033
#        161508
#        185068
#        199215
#        216852
#        242325
#
# Disc length: 3432 seconds
#
# Revision: 0
# Processed by: cddbd v1.5.2PL0 Copyright (c) Steve Scherf et al.
# Submitted via: ExactAudioCopy v0.99pb4
#
DISCID=c60d660f
DTITLE=Frank Frost and Sam Carr - The Last Of The Jelly Roll Kings
DYEAR=2007
DGENRE=Blues
TTITLE0=Better Take It Slow
TTITLE1=Hey Baby
TTITLE2=Keep Things Right
TTITLE3=Done With You 
TTITLE4=Owl Head Woman Part 2
TTITLE5=Don't Do That 
TTITLE6=Jelly Roll King
TTITLE7=Rock Me Baby 
TTITLE8=Come Here Baby
TTITLE9=St. Louis Serenade
TTITLE10=How Many Times
TTITLE11=Black Cat Bone
TTITLE12=Midnight Prowler 
TTITLE13=King Biscuit Blues
TTITLE14=Arkansas Shuffle
EXTD=
EXTT0=
EXTT1=
EXTT2=
EXTT3=
EXTT4=
EXTT5=
EXTT6=
EXTT7=
EXTT8=
EXTT9=
EXTT10=
EXTT11=
EXTT12=
EXTT13=
EXTT14=
PLAYORDER=
